<?xml version="1.0" encoding="UTF-8"?>
<svg id="Layer_1" xmlns="http://www.w3.org/2000/svg" version="1.1" viewBox="0 0 800 800">
  <!-- Generator: Adobe Illustrator 29.1.0, SVG Export Plug-In . SVG Version: 2.1.0 Build 142)  -->
  <defs>
    <style>
      .st0 {
        fill: #565656;
      }
    </style>
  </defs>
  <path class="st0" d="M539.7,66.7h-279.3c-121.3,0-193.7,72.3-193.7,193.7v279.3c0,121.3,72.3,193.7,193.7,193.7h279.3c121.3,0,193.7-72.3,193.7-193.7v-279.3c0-121.3-72.3-193.7-193.7-193.7ZM332.3,496.7l-75,75c-5,5-11.3,7.3-17.7,7.3s-13-2.3-17.7-7.3l-25-25c-10-9.7-10-25.7,0-35.3,9.7-9.7,25.3-9.7,35.3,0l7.3,7.3,57.3-57.3c9.7-9.7,25.3-9.7,35.3,0,9.7,9.7,9.7,25.7,0,35.3ZM332.3,263.3l-75,75c-5,5-11.3,7.3-17.7,7.3s-13-2.3-17.7-7.3l-25-25c-10-9.7-10-25.7,0-35.3,9.7-9.7,25.3-9.7,35.3,0l7.3,7.3,57.3-57.3c9.7-9.7,25.3-9.7,35.3,0,9.7,9.7,9.7,25.7,0,35.3ZM585.3,554h-175c-13.7,0-25-11.3-25-25s11.3-25,25-25h175c14,0,25,11.3,25,25s-11,25-25,25ZM585.3,320.7h-175c-13.7,0-25-11.3-25-25s11.3-25,25-25h175c14,0,25,11.3,25,25s-11,25-25,25Z"/>
</svg>