<?xml version="1.0" encoding="UTF-8"?>
<svg id="Flat" xmlns="http://www.w3.org/2000/svg" version="1.1" viewBox="0 0 800 800">
  <!-- Generator: Adobe Illustrator 29.1.0, SVG Export Plug-In . SVG Version: 2.1.0 Build 142)  -->
  <defs>
    <style>
      .st0 {
        fill: #565656;
      }
    </style>
  </defs>
  <path class="st0" d="M603,109.5l28.7-41c5.9-8.5,17.6-10.5,26.1-4.6,8.5,5.9,10.5,17.6,4.6,26.1l-28.7,41c-5.9,8.5-17.6,10.5-26.1,4.6-8.5-5.9-10.5-17.6-4.6-26.1h0ZM534.9,101.6c10,2.7,20.3-3.2,23-13.2,0,0,0,0,0,0l12.9-48.3c2.7-10-3.3-20.3-13.3-22.9-10-2.7-20.2,3.3-22.9,13.2l-12.9,48.3c-2.7,10,3.3,20.3,13.3,23ZM647.7,309.8c56.1,98,37.9,221.6-43.9,299.3-46.5,126.4-186.6,191.1-312.9,144.6-53.5-19.7-98.4-57.5-126.9-106.8l-115.6-200.3c-20.7-35.8-8.5-81.7,27.3-102.4,11.4-6.6,24.4-10.1,37.6-10.1l-11.3-19.6c-20.7-35.8-8.5-81.7,27.4-102.4,8.2-4.8,17.3-7.9,26.7-9.3-10.6-40.1,13.4-81.1,53.4-91.6,27.7-7.3,57.1,1.8,75.9,23.5,19.9-36.3,65.4-49.6,101.7-29.8,12.1,6.6,22.1,16.4,29,28.3l48.8,84.5c20.7-35.9,66.5-48.2,102.4-27.5,11.4,6.6,20.9,16.1,27.5,27.5l53.1,92ZM553.6,421.8l-53.1-92c-10.4-17.9-33.3-24.1-51.2-13.7s-24.1,33.3-13.7,51.2h0s50,86.6,50,86.6c5.2,9,2.1,20.4-6.8,25.6-9,5.2-20.4,2.1-25.6-6.8,0,0,0,0,0,0l-131.2-227.3c-10.4-17.9-33.3-24.1-51.2-13.7s-24.1,33.3-13.7,51.2h0s93.8,162.4,93.8,162.4c5.2,9,2.1,20.4-6.9,25.6-9,5.2-20.4,2.1-25.6-6.9l-118.8-205.7c-10.4-17.9-33.3-24.1-51.2-13.7s-24.1,33.3-13.7,51.2l118.8,205.7c5.2,9,2.1,20.4-6.8,25.6-9,5.2-20.4,2.1-25.6-6.8,0,0,0,0,0,0l-75-129.9h0c-10.4-17.9-33.3-24.1-51.2-13.7-17.9,10.4-24.1,33.3-13.7,51.2l115.6,200.3c57,98.6,183.1,132.4,281.7,75.5,98.6-57,132.4-183.1,75.5-281.7ZM736.1,142.2c-5.9-8.5-17.6-10.5-26.1-4.6,0,0,0,0,0,0l-41,28.7c-8.5,5.9-10.5,17.6-4.6,26.1s17.6,10.5,26.1,4.6l41-28.7c8.5-5.9,10.5-17.6,4.6-26.1h0Z"/>
</svg>