<?xml version="1.0" encoding="UTF-8"?>
<svg id="Layer_1" xmlns="http://www.w3.org/2000/svg" version="1.1" viewBox="0 0 800 800">
  <!-- Generator: Adobe Illustrator 29.1.0, SVG Export Plug-In . SVG Version: 2.1.0 Build 142)  -->
  <defs>
    <style>
      .st0 {
        fill: #565656;
      }
    </style>
  </defs>
  <path class="st0" d="M561,521.3c22.3-14.7,51.7,1.3,51.7,28v43c0,42.3-33,87.7-72.7,101l-106.3,35.3c-18.7,6.3-49,6.3-67.3,0l-106.3-35.3c-40-13.3-72.7-58.7-72.7-101v-43.3c0-26.3,29.3-42.3,51.3-28l68.7,44.7c26.3,17.7,59.7,26.3,93,26.3s66.7-8.7,93-26.3l67.7-44.3h-.1Z"/>
  <path class="st0" d="M666,215.3l-199.7-131c-36-23.7-95.3-23.7-131.3,0l-200.7,131c-64.3,41.7-64.3,136,0,178l53.3,34.7,147.3,96c36,23.7,95.3,23.7,131.3,0l146.3-96,45.7-30v102c0,13.7,11.3,25,25,25s25-11.3,25-25v-164c13.3-43-.3-93-42.3-120.7h0Z"/>
</svg>